<svg width="258" height="90" viewBox="0 0 258 90" fill="none" xmlns="http://www.w3.org/2000/svg">
<g filter="url(#filter0_i_23_778)">
<path d="M10.0149 47.4536L15.5469 0.637391L50.737 0.922467L49.4243 12.0314L26.1619 11.8429L25.3181 18.9844L44.4947 19.1397L43.2446 29.7197L24.0679 29.5643L23.2475 36.5074L46.5099 36.6958L45.205 47.7386L10.0149 47.4536Z" fill="#E3E3E3"/>
<path d="M50.1413 47.7786L55.6732 0.962456L67.6009 1.05908L63.3739 36.8325L85.7136 37.0134L84.4088 48.0562L50.1413 47.7786Z" fill="#E3E3E3"/>
<path d="M88.8518 48.0922L94.3838 1.27605L106.311 1.37268L102.084 37.1461L124.424 37.327L123.119 48.3698L88.8518 48.0922Z" fill="#E3E3E3"/>
<path d="M127.562 48.4058L133.094 1.58965L145.022 1.68627L139.49 48.5024L127.562 48.4058Z" fill="#E3E3E3"/>
<path d="M168.056 49.2634C163.311 49.2249 159.277 48.1994 155.953 46.1869C152.629 44.1743 150.189 41.3746 148.634 37.7879C147.128 34.1574 146.656 29.9617 147.219 25.2008C147.797 20.3075 149.308 16.0838 151.751 12.5294C154.199 8.93096 157.341 6.15447 161.178 4.19991C165.015 2.24536 169.306 1.28731 174.05 1.32574C178.751 1.36382 182.766 2.36711 186.096 4.33559C189.425 6.30407 191.889 9.08186 193.488 12.669C195.092 16.212 195.608 20.408 195.035 25.2572C194.472 30.0181 192.964 34.2199 190.511 37.8624C188.107 41.4612 184.959 44.2818 181.068 46.3241C177.226 48.3228 172.889 49.3025 168.056 49.2634ZM169.656 37.9582C172.467 37.981 174.806 37.3601 176.67 36.0956C178.54 34.787 179.962 33.1659 180.938 31.2323C181.958 29.299 182.58 27.3846 182.804 25.489C182.971 24.0784 182.921 22.6439 182.653 21.1856C182.435 19.6836 181.94 18.2896 181.169 17.0037C180.441 15.7182 179.377 14.6726 177.977 13.8671C176.577 13.0615 174.779 12.6498 172.582 12.632C169.815 12.6096 167.499 13.2306 165.634 14.4951C163.775 15.7156 162.335 17.2924 161.315 19.2257C160.295 21.1589 159.663 23.1615 159.418 25.2334C159.173 27.3053 159.332 29.3143 159.893 31.2603C160.499 33.2067 161.585 34.8041 163.153 36.0523C164.764 37.3008 166.932 37.9361 169.656 37.9582Z" fill="#E3E3E3"/>
<path d="M206.95 49.0489L211.169 13.3417L197.33 13.2296L198.643 2.12066L238.314 2.44204L237.001 13.551L223.097 13.4383L218.877 49.1456L206.95 49.0489Z" fill="#E3E3E3"/>
</g>
<g filter="url(#filter1_i_23_778)">
<path d="M3.70158 86.8181L7.60532 54.3402L21.5271 54.453C23.017 54.465 24.5215 54.615 26.0404 54.9028C27.5594 55.1906 28.9403 55.7222 30.1831 56.4975C31.4297 57.2423 32.3719 58.3213 33.0099 59.7346C33.6479 61.1479 33.8308 62.9861 33.5588 65.2492C33.3897 66.6559 33.0125 67.9845 32.4273 69.2348C31.8457 70.4546 31.0168 71.5346 29.9405 72.4748C28.8954 73.4153 27.5619 74.1698 25.94 74.7383L32.1038 87.0482L22.5122 86.9704L17.4977 75.9556L13.4469 75.9228L12.1291 86.8863L3.70158 86.8181ZM14.3236 68.629L19.8644 68.6739C20.6714 68.6804 21.379 68.6096 21.9872 68.4615C22.6264 68.3136 23.1643 68.1037 23.6009 67.8317C24.0722 67.5294 24.4423 67.1651 24.711 66.7387C24.9797 66.3123 25.149 65.8086 25.2189 65.2275C25.3218 64.3712 25.1817 63.7273 24.7986 63.2956C24.4155 62.8639 23.8762 62.5688 23.1806 62.4101C22.4851 62.2514 21.6872 62.1684 20.787 62.1611L15.1066 62.1151L14.3236 68.629Z" fill="url(#paint0_linear_23_778)"/>
<path d="M35.8269 87.0783L39.7306 54.6004L64.5942 54.8019L63.6679 62.5085L47.2319 62.3753L46.6364 67.3296L60.1856 67.4393L59.3034 74.779L45.7542 74.6692L45.1752 79.4858L61.6113 79.619L60.6905 87.2797L35.8269 87.0783Z" fill="url(#paint1_linear_23_778)"/>
<path d="M68.5549 87.3434L64.9623 54.8048L74.3211 54.8806L76.1958 77.6709L83.8196 54.9576L94.3424 55.0428L96.4033 77.8346L103.515 55.1171L112.361 55.1888L101.101 87.6071L89.8333 87.5158L87.6731 65.5498L80.2883 87.4385L68.5549 87.3434Z" fill="url(#paint2_linear_23_778)"/>
<path d="M105.865 87.6457L122.992 55.2749L131.559 55.3443L140.739 87.9282L131.659 87.8547L130.581 83.2542L117.125 83.1452L114.897 87.7189L105.865 87.6457ZM120.678 75.6894L128.826 75.7554L126.161 64.5759L120.678 75.6894Z" fill="url(#paint3_linear_23_778)"/>
<path d="M142.706 87.9441L146.61 55.4663L160.532 55.579C162.022 55.5911 163.526 55.7411 165.045 56.0289C166.564 56.3167 167.945 56.8483 169.188 57.6236C170.434 58.3684 171.377 59.4474 172.015 60.8607C172.653 62.274 172.836 64.1122 172.564 66.3753C172.394 67.782 172.017 69.1106 171.432 70.3609C170.85 71.5807 170.021 72.6607 168.945 73.6009C167.9 74.5414 166.567 75.2959 164.945 75.8644L171.109 88.1742L161.517 88.0965L156.502 77.0817L152.452 77.0488L151.134 88.0124L142.706 87.9441ZM153.328 69.7551L158.869 69.8C159.676 69.8065 160.384 69.7357 160.992 69.5876C161.631 69.4397 162.169 69.2298 162.606 68.9578C163.077 68.6555 163.447 68.2912 163.716 67.8648C163.984 67.4384 164.154 66.9347 164.224 66.3536C164.327 65.4973 164.186 64.8533 163.803 64.4217C163.42 63.99 162.881 63.6948 162.185 63.5361C161.49 63.3775 160.692 63.2945 159.792 63.2872L154.111 63.2412L153.328 69.7551Z" fill="url(#paint4_linear_23_778)"/>
<path d="M174.832 88.2044L178.735 55.7265L191.633 55.831C195.109 55.8592 198.031 56.4951 200.398 57.7387C202.797 58.9826 204.534 60.8181 205.609 63.2451C206.715 65.6724 207.05 68.7056 206.613 72.3449C206.186 75.8923 205.162 78.8534 203.541 81.2279C201.919 83.6025 199.778 85.3912 197.117 86.5942C194.459 87.7665 191.361 88.3383 187.822 88.3096L174.832 88.2044ZM184.18 80.6119L188.836 80.6496C190.916 80.6665 192.588 80.328 193.852 79.6342C195.151 78.91 196.125 77.9077 196.777 76.6273C197.459 75.3472 197.901 73.8661 198.103 72.1841C198.298 70.5632 198.224 69.1086 197.882 67.8201C197.543 66.5011 196.797 65.4696 195.644 64.7255C194.494 63.9509 192.802 63.5546 190.567 63.5365L186.237 63.5014L184.18 80.6119Z" fill="url(#paint5_linear_23_778)"/>
<path d="M221.672 88.9512C219.251 88.9316 217.048 88.5158 215.064 87.7038C213.111 86.8921 211.568 85.6398 210.436 83.947C209.334 82.2544 208.8 80.1073 208.833 77.5056L217.307 77.5742C217.422 78.4323 217.74 79.1389 218.264 79.6942C218.791 80.2189 219.475 80.607 220.315 80.8587C221.185 81.1107 222.133 81.2408 223.157 81.2491C223.778 81.2541 224.422 81.1981 225.088 81.0811C225.755 80.964 226.326 80.7391 226.801 80.4062C227.307 80.0736 227.598 79.5861 227.676 78.9439C227.731 78.4852 227.635 78.1171 227.389 77.8396C227.177 77.5317 226.834 77.2841 226.36 77.0966C225.92 76.8787 225.352 76.6904 224.656 76.5318C224.384 76.4683 224.097 76.4048 223.794 76.3411C223.522 76.2777 223.25 76.2142 222.978 76.1508C222.706 76.0874 222.418 76.0238 222.115 75.9602C220.573 75.6109 219.098 75.2163 217.69 74.7764C216.286 74.3058 215.07 73.6991 214.041 72.956C213.011 72.213 212.244 71.2272 211.739 69.9987C211.235 68.7701 211.094 67.2231 211.319 65.3576C211.524 63.645 212.008 62.2102 212.768 61.0531C213.532 59.8655 214.469 58.9241 215.578 58.229C216.69 57.5033 217.874 56.9619 219.129 56.6047C220.383 56.2476 221.608 56.0126 222.802 55.8998C224 55.7565 225.064 55.6886 225.996 55.6961C228.293 55.7147 230.259 56.1592 231.894 57.0296C233.533 57.8694 234.783 59.104 235.644 60.7333C236.535 62.363 236.952 64.3255 236.893 66.6209L228.745 66.5549C228.733 65.8813 228.522 65.3133 228.111 64.8508C227.704 64.3577 227.143 63.9858 226.428 63.7352C225.747 63.4541 224.925 63.3097 223.963 63.3019C223.404 63.2974 222.871 63.339 222.363 63.4267C221.856 63.5144 221.405 63.6485 221.01 63.829C220.646 64.0097 220.34 64.2368 220.089 64.5103C219.839 64.7838 219.692 65.104 219.647 65.471C219.589 65.9603 219.725 66.3747 220.057 66.7141C220.42 67.0538 220.96 67.3489 221.675 67.5996C222.422 67.8506 223.337 68.1182 224.422 68.4025C224.935 68.5291 225.432 68.6556 225.914 68.7819C226.4 68.8777 226.884 68.9887 227.366 69.1151C228.695 69.432 229.925 69.794 231.057 70.2011C232.22 70.6085 233.212 71.1369 234.035 71.7864C234.889 72.4362 235.514 73.3137 235.91 74.4189C236.309 75.4935 236.407 76.8718 236.205 78.5538C235.973 80.4805 235.404 82.1136 234.497 83.4532C233.594 84.7622 232.457 85.8243 231.085 86.6397C229.713 87.4551 228.212 88.0552 226.581 88.4399C224.954 88.7941 223.317 88.9645 221.672 88.9512Z" fill="url(#paint6_linear_23_778)"/>
</g>
<defs>
<filter id="filter0_i_23_778" x="10.015" y="0.637207" width="228.299" height="48.6274" filterUnits="userSpaceOnUse" color-interpolation-filters="sRGB">
<feFlood flood-opacity="0" result="BackgroundImageFix"/>
<feBlend mode="normal" in="SourceGraphic" in2="BackgroundImageFix" result="shape"/>
<feColorMatrix in="SourceAlpha" type="matrix" values="0 0 0 0 0 0 0 0 0 0 0 0 0 0 0 0 0 0 127 0" result="hardAlpha"/>
<feOffset dy="1"/>
<feComposite in2="hardAlpha" operator="arithmetic" k2="-1" k3="1"/>
<feColorMatrix type="matrix" values="0 0 0 0 1 0 0 0 0 1 0 0 0 0 1 0 0 0 0.52 0"/>
<feBlend mode="normal" in2="shape" result="effect1_innerShadow_23_778"/>
</filter>
<filter id="filter1_i_23_778" x="3.70155" y="54.3403" width="233.197" height="34.6118" filterUnits="userSpaceOnUse" color-interpolation-filters="sRGB">
<feFlood flood-opacity="0" result="BackgroundImageFix"/>
<feBlend mode="normal" in="SourceGraphic" in2="BackgroundImageFix" result="shape"/>
<feColorMatrix in="SourceAlpha" type="matrix" values="0 0 0 0 0 0 0 0 0 0 0 0 0 0 0 0 0 0 127 0" result="hardAlpha"/>
<feOffset dy="1"/>
<feComposite in2="hardAlpha" operator="arithmetic" k2="-1" k3="1"/>
<feColorMatrix type="matrix" values="0 0 0 0 1 0 0 0 0 1 0 0 0 0 1 0 0 0 0.52 0"/>
<feBlend mode="normal" in2="shape" result="effect1_innerShadow_23_778"/>
</filter>
<linearGradient id="paint0_linear_23_778" x1="8.92693" y1="56.1425" x2="235.398" y2="84.2839" gradientUnits="userSpaceOnUse">
<stop stop-color="#41D63F"/>
<stop offset="1" stop-color="#227021"/>
</linearGradient>
<linearGradient id="paint1_linear_23_778" x1="8.92693" y1="56.1425" x2="235.398" y2="84.2839" gradientUnits="userSpaceOnUse">
<stop stop-color="#41D63F"/>
<stop offset="1" stop-color="#227021"/>
</linearGradient>
<linearGradient id="paint2_linear_23_778" x1="8.92693" y1="56.1425" x2="235.398" y2="84.2839" gradientUnits="userSpaceOnUse">
<stop stop-color="#41D63F"/>
<stop offset="1" stop-color="#227021"/>
</linearGradient>
<linearGradient id="paint3_linear_23_778" x1="8.92693" y1="56.1425" x2="235.398" y2="84.2839" gradientUnits="userSpaceOnUse">
<stop stop-color="#41D63F"/>
<stop offset="1" stop-color="#227021"/>
</linearGradient>
<linearGradient id="paint4_linear_23_778" x1="8.92693" y1="56.1425" x2="235.398" y2="84.2839" gradientUnits="userSpaceOnUse">
<stop stop-color="#41D63F"/>
<stop offset="1" stop-color="#227021"/>
</linearGradient>
<linearGradient id="paint5_linear_23_778" x1="8.92693" y1="56.1425" x2="235.398" y2="84.2839" gradientUnits="userSpaceOnUse">
<stop stop-color="#41D63F"/>
<stop offset="1" stop-color="#227021"/>
</linearGradient>
<linearGradient id="paint6_linear_23_778" x1="8.92693" y1="56.1425" x2="235.398" y2="84.2839" gradientUnits="userSpaceOnUse">
<stop stop-color="#41D63F"/>
<stop offset="1" stop-color="#227021"/>
</linearGradient>
</defs>
</svg>
