<svg width="315" height="29" viewBox="0 0 315 29" fill="none" xmlns="http://www.w3.org/2000/svg">
<g filter="url(#filter0_i_15_4718)">
<path d="M2.89112 25.7123L5.88856 0.345364L24.956 0.49983L24.2447 6.51909L11.6402 6.41698L11.183 10.2865L21.5737 10.3707L20.8963 16.1033L10.5056 16.0191L10.0611 19.7812L22.6656 19.8833L21.9585 25.8667L2.89112 25.7123Z" fill="#E3E3E3"/>
<path d="M24.6332 25.8884L27.6306 0.521498L34.0936 0.573854L31.8031 19.9573L43.9077 20.0554L43.2007 26.0388L24.6332 25.8884Z" fill="#E3E3E3"/>
<path d="M45.6081 26.0583L48.6056 0.691417L55.0685 0.743773L52.7781 20.1272L64.8827 20.2253L64.1756 26.2087L45.6081 26.0583Z" fill="#E3E3E3"/>
<path d="M66.5831 26.2282L69.5805 0.861335L76.0434 0.913692L73.046 26.2806L66.5831 26.2282Z" fill="#E3E3E3"/>
<path d="M88.5242 26.6929C85.9533 26.6721 83.7673 26.1164 81.9661 25.0259C80.165 23.9354 78.8431 22.4185 78.0005 20.475C77.1846 18.5079 76.929 16.2345 77.2338 13.6548C77.5471 11.0034 78.3656 8.71483 79.6892 6.78893C81.0156 4.83916 82.7184 3.33474 84.7973 2.27568C86.8763 1.21663 89.2012 0.697515 91.7721 0.718342C94.3192 0.738976 96.4947 1.28259 98.2987 2.3492C100.103 3.4158 101.438 4.92092 102.304 6.86455C103.173 8.7843 103.453 11.0579 103.142 13.6854C102.838 16.265 102.021 18.5417 100.691 20.5154C99.3886 22.4654 97.6831 23.9937 95.5746 25.1003C93.4928 26.1832 91.1427 26.7141 88.5242 26.6929ZM89.391 20.5673C90.9145 20.5796 92.1813 20.2432 93.1915 19.558C94.2046 18.849 94.9756 17.9706 95.5044 16.9229C96.0571 15.8754 96.3941 14.8381 96.5155 13.811C96.6058 13.0466 96.5785 12.2694 96.4336 11.4792C96.3153 10.6654 96.0472 9.91005 95.6291 9.21331C95.2349 8.51676 94.6585 7.95023 93.8999 7.51373C93.1414 7.07723 92.167 6.85415 90.9768 6.84451C89.4771 6.83236 88.2221 7.16888 87.2119 7.85405C86.2045 8.51533 85.4245 9.36973 84.8718 10.4172C84.3191 11.4648 83.9765 12.5498 83.8438 13.6725C83.7111 14.7951 83.797 15.8837 84.1013 16.9381C84.4294 17.9928 85.0181 18.8582 85.8674 19.5346C86.7406 20.2111 87.9151 20.5553 89.391 20.5673Z" fill="#E3E3E3"/>
<path d="M109.598 26.5767L111.884 7.22907L104.386 7.16832L105.097 1.14906L126.593 1.32319L125.882 7.34246L118.347 7.28142L116.061 26.6291L109.598 26.5767Z" fill="#E3E3E3"/>
</g>
<g filter="url(#filter1_i_15_4718)">
<path d="M129.276 26.7361L132.325 1.36959L143.198 1.45767C144.362 1.4671 145.537 1.58421 146.723 1.809C147.91 2.03379 148.988 2.44897 149.959 3.05456C150.933 3.63626 151.669 4.47903 152.167 5.58287C152.665 6.68671 152.808 8.1224 152.596 9.88993C152.463 10.9887 152.169 12.0263 151.712 13.0029C151.257 13.9556 150.61 14.7991 149.77 15.5334C148.953 16.268 147.912 16.8573 146.645 17.3013L151.459 26.9158L143.968 26.8551L140.051 18.252L136.887 18.2264L135.858 26.7894L129.276 26.7361ZM137.572 12.5297L141.9 12.5648C142.53 12.5699 143.083 12.5146 143.558 12.3989C144.057 12.2834 144.477 12.1194 144.818 11.907C145.186 11.6709 145.475 11.3863 145.685 11.0533C145.895 10.7203 146.027 10.3269 146.082 9.87303C146.162 9.20423 146.053 8.70126 145.753 8.36411C145.454 8.02697 145.033 7.79642 144.49 7.67247C143.946 7.54853 143.323 7.48371 142.62 7.47801L138.184 7.44207L137.572 12.5297Z" fill="url(#paint0_linear_15_4718)"/>
<path d="M154.367 26.9393L157.416 1.57285L176.835 1.73017L176.112 7.74933L163.275 7.64534L162.81 11.5148L173.392 11.6005L172.703 17.3331L162.121 17.2473L161.668 21.0093L174.506 21.1133L173.786 27.0966L154.367 26.9393Z" fill="url(#paint1_linear_15_4718)"/>
<path d="M179.929 27.1464L177.123 1.7325L184.432 1.79171L185.897 19.5917L191.851 1.85181L200.07 1.91839L201.679 19.7196L207.234 1.97643L214.143 2.0324L205.349 27.3523L196.548 27.281L194.861 10.1247L189.093 27.2206L179.929 27.1464Z" fill="url(#paint2_linear_15_4718)"/>
<path d="M209.069 27.3825L222.446 2.09966L229.137 2.15387L236.307 27.6031L229.216 27.5457L228.374 23.9525L217.864 23.8674L216.124 27.4396L209.069 27.3825ZM220.639 18.0442L227.003 18.0957L224.922 9.36409L220.639 18.0442Z" fill="url(#paint3_linear_15_4718)"/>
<path d="M237.844 27.6156L240.893 2.2491L251.766 2.33719C252.93 2.34661 254.105 2.46372 255.291 2.68851C256.478 2.9133 257.556 3.32849 258.527 3.93407C259.501 4.51577 260.237 5.35854 260.735 6.46239C261.233 7.56623 261.376 9.00192 261.164 10.7694C261.031 11.8682 260.737 12.9058 260.28 13.8824C259.826 14.8351 259.178 15.6786 258.338 16.4129C257.521 17.1475 256.48 17.7368 255.213 18.1808L260.027 27.7953L252.536 27.7346L248.619 19.1316L245.455 19.1059L244.426 27.6689L237.844 27.6156ZM246.14 13.4092L250.468 13.4443C251.098 13.4494 251.651 13.3941 252.126 13.2784C252.625 13.1629 253.045 12.9989 253.386 12.7865C253.754 12.5504 254.043 12.2658 254.253 11.9328C254.463 11.5998 254.595 11.2064 254.65 10.7525C254.73 10.0837 254.621 9.58077 254.321 9.24363C254.022 8.90648 253.601 8.67593 253.058 8.55199C252.515 8.42804 251.891 8.36322 251.188 8.35753L246.752 8.32159L246.14 13.4092Z" fill="url(#paint4_linear_15_4718)"/>
<path d="M262.935 27.8188L265.984 2.45236L276.057 2.53397C278.773 2.55597 281.055 3.05263 282.904 4.02396C284.777 4.99549 286.133 6.42905 286.973 8.32465C287.838 10.2205 288.099 12.5895 287.757 15.4319C287.424 18.2027 286.624 20.5153 285.358 22.37C284.092 24.2246 282.419 25.6217 280.34 26.5612C278.265 27.4768 275.845 27.9234 273.081 27.901L262.935 27.8188ZM270.236 21.8888L273.873 21.9183C275.497 21.9314 276.803 21.6671 277.79 21.1252C278.805 20.5596 279.566 19.7768 280.075 18.7767C280.608 17.7768 280.953 16.6201 281.111 15.3064C281.263 14.0404 281.205 12.9043 280.938 11.898C280.674 10.8677 280.091 10.0621 279.19 9.48095C278.292 8.87596 276.97 8.56639 275.225 8.55225L271.843 8.52485L270.236 21.8888Z" fill="url(#paint5_linear_15_4718)"/>
<path d="M299.519 28.4021C297.628 28.3868 295.908 28.062 294.358 27.4279C292.833 26.7939 291.628 25.8158 290.743 24.4937C289.883 23.1717 289.466 21.4947 289.491 19.4627L296.11 19.5163C296.199 20.1864 296.449 20.7384 296.857 21.172C297.269 21.5818 297.803 21.885 298.459 22.0816C299.139 22.2784 299.879 22.38 300.679 22.3865C301.164 22.3904 301.667 22.3467 302.187 22.2553C302.708 22.1638 303.154 21.9881 303.525 21.7281C303.92 21.4683 304.148 21.0876 304.208 20.5861C304.251 20.2278 304.177 19.9403 303.984 19.7235C303.819 19.4831 303.551 19.2897 303.18 19.1432C302.837 18.973 302.393 18.826 301.85 18.7021C301.638 18.6525 301.413 18.6029 301.176 18.5531C300.964 18.5036 300.751 18.4541 300.539 18.4045C300.327 18.355 300.102 18.3054 299.865 18.2556C298.66 17.9829 297.508 17.6747 296.409 17.331C295.313 16.9635 294.363 16.4896 293.559 15.9093C292.755 15.329 292.156 14.559 291.761 13.5995C291.367 12.6399 291.258 11.4316 291.433 9.97463C291.593 8.63704 291.971 7.51638 292.565 6.61265C293.162 5.68504 293.893 4.9498 294.759 4.40691C295.628 3.84014 296.553 3.41727 297.533 3.1383C298.513 2.85933 299.469 2.67581 300.402 2.58773C301.337 2.47577 302.169 2.42273 302.896 2.42862C304.69 2.44316 306.226 2.79032 307.503 3.47011C308.783 4.12602 309.759 5.09028 310.432 6.3629C311.128 7.6357 311.453 9.16851 311.408 10.9613L305.044 10.9097C305.034 10.3837 304.869 9.94002 304.548 9.57879C304.231 9.19368 303.792 8.90322 303.233 8.70742C302.702 8.48793 302.06 8.37515 301.308 8.36906C300.872 8.36552 300.456 8.39801 300.059 8.46653C299.663 8.53504 299.31 8.63978 299.002 8.78073C298.718 8.92188 298.478 9.09926 298.283 9.31285C298.087 9.52645 297.972 9.77656 297.938 10.0632C297.892 10.4454 297.999 10.769 298.258 11.0341C298.542 11.2994 298.963 11.5299 299.522 11.7257C300.105 11.9217 300.82 12.1307 301.667 12.3528C302.068 12.4517 302.456 12.5504 302.832 12.6491C303.212 12.7239 303.59 12.8107 303.966 12.9094C305.004 13.1569 305.965 13.4396 306.849 13.7576C307.757 14.0757 308.533 14.4885 309.175 14.9958C309.842 15.5033 310.33 16.1886 310.639 17.0518C310.951 17.8912 311.028 18.9677 310.87 20.2814C310.689 21.7862 310.244 23.0617 309.536 24.1079C308.831 25.1303 307.943 25.9599 306.871 26.5968C305.8 27.2336 304.627 27.7023 303.353 28.0028C302.082 28.2794 300.804 28.4125 299.519 28.4021Z" fill="url(#paint6_linear_15_4718)"/>
</g>
<defs>
<filter id="filter0_i_15_4718" x="2.89114" y="0.345337" width="123.702" height="26.3481" filterUnits="userSpaceOnUse" color-interpolation-filters="sRGB">
<feFlood flood-opacity="0" result="BackgroundImageFix"/>
<feBlend mode="normal" in="SourceGraphic" in2="BackgroundImageFix" result="shape"/>
<feColorMatrix in="SourceAlpha" type="matrix" values="0 0 0 0 0 0 0 0 0 0 0 0 0 0 0 0 0 0 127 0" result="hardAlpha"/>
<feOffset dy="1"/>
<feComposite in2="hardAlpha" operator="arithmetic" k2="-1" k3="1"/>
<feColorMatrix type="matrix" values="0 0 0 0 1 0 0 0 0 1 0 0 0 0 1 0 0 0 0.52 0"/>
<feBlend mode="normal" in2="shape" result="effect1_innerShadow_15_4718"/>
</filter>
<filter id="filter1_i_15_4718" x="129.276" y="1.36963" width="182.136" height="27.0331" filterUnits="userSpaceOnUse" color-interpolation-filters="sRGB">
<feFlood flood-opacity="0" result="BackgroundImageFix"/>
<feBlend mode="normal" in="SourceGraphic" in2="BackgroundImageFix" result="shape"/>
<feColorMatrix in="SourceAlpha" type="matrix" values="0 0 0 0 0 0 0 0 0 0 0 0 0 0 0 0 0 0 127 0" result="hardAlpha"/>
<feOffset dy="1"/>
<feComposite in2="hardAlpha" operator="arithmetic" k2="-1" k3="1"/>
<feColorMatrix type="matrix" values="0 0 0 0 1 0 0 0 0 1 0 0 0 0 1 0 0 0 0.52 0"/>
<feBlend mode="normal" in2="shape" result="effect1_innerShadow_15_4718"/>
</filter>
<linearGradient id="paint0_linear_15_4718" x1="133.357" y1="2.77728" x2="310.24" y2="24.7568" gradientUnits="userSpaceOnUse">
<stop stop-color="#41D63F"/>
<stop offset="1" stop-color="#227021"/>
</linearGradient>
<linearGradient id="paint1_linear_15_4718" x1="133.357" y1="2.77728" x2="310.24" y2="24.7568" gradientUnits="userSpaceOnUse">
<stop stop-color="#41D63F"/>
<stop offset="1" stop-color="#227021"/>
</linearGradient>
<linearGradient id="paint2_linear_15_4718" x1="133.357" y1="2.77728" x2="310.24" y2="24.7568" gradientUnits="userSpaceOnUse">
<stop stop-color="#41D63F"/>
<stop offset="1" stop-color="#227021"/>
</linearGradient>
<linearGradient id="paint3_linear_15_4718" x1="133.357" y1="2.77728" x2="310.24" y2="24.7568" gradientUnits="userSpaceOnUse">
<stop stop-color="#41D63F"/>
<stop offset="1" stop-color="#227021"/>
</linearGradient>
<linearGradient id="paint4_linear_15_4718" x1="133.357" y1="2.77728" x2="310.24" y2="24.7568" gradientUnits="userSpaceOnUse">
<stop stop-color="#41D63F"/>
<stop offset="1" stop-color="#227021"/>
</linearGradient>
<linearGradient id="paint5_linear_15_4718" x1="133.357" y1="2.77728" x2="310.24" y2="24.7568" gradientUnits="userSpaceOnUse">
<stop stop-color="#41D63F"/>
<stop offset="1" stop-color="#227021"/>
</linearGradient>
<linearGradient id="paint6_linear_15_4718" x1="133.357" y1="2.77728" x2="310.24" y2="24.7568" gradientUnits="userSpaceOnUse">
<stop stop-color="#41D63F"/>
<stop offset="1" stop-color="#227021"/>
</linearGradient>
</defs>
</svg>
