<svg width="40" height="40" viewBox="0 0 40 40" fill="none" xmlns="http://www.w3.org/2000/svg">
<path d="M20 0C24.6708 0 28.9663 1.60263 32.3701 4.28613H37.1426V9.69238C38.9564 12.7026 40 16.2294 40 20C40 23.77 38.956 27.2958 37.1426 30.3057V35.7139H32.3701C28.9663 38.3974 24.6708 40 20 40C15.3292 40 11.0337 38.3974 7.62988 35.7139H2.85742V30.3057C1.04399 27.2958 0 23.77 0 20C8.79703e-08 16.2294 1.04359 12.7026 2.85742 9.69238V4.28613H7.62988C11.0337 1.60263 15.3292 1.0898e-07 20 0ZM20 1.42871C15.6895 1.42871 11.7227 2.89819 8.57129 5.3623V10H4.34961C2.5012 12.8866 1.42871 16.3179 1.42871 20C1.42871 23.6821 2.5012 27.1134 4.34961 30H8.57129V34.6367C11.7227 37.1012 15.6892 38.5713 20 38.5713C24.3108 38.5713 28.2773 37.1012 31.4287 34.6367V30H35.6504C37.4988 27.1134 38.5713 23.6822 38.5713 20C38.5713 16.3179 37.4988 12.8866 35.6504 10H31.4287V5.3623C28.2773 2.89819 24.3105 1.42871 20 1.42871ZM32.8574 34.2861H35.7139V31.4287H32.8574V34.2861ZM4.28613 34.2861H7.14258V33.3994H7.14355V31.4287H4.28613V34.2861ZM4.28613 8.57129H5.36133L5.36035 8.57227H7.14355V6.59863L7.14258 6.59961V5.71484H4.28613V8.57129ZM32.8574 8.57227H34.6396L34.6387 8.57129H35.7139V5.71484H32.8574V8.57227Z" fill="white" fill-opacity="0.1"/>
</svg>
