<svg width="39" height="39" viewBox="0 0 39 39" fill="none" xmlns="http://www.w3.org/2000/svg">
<path d="M30.5247 8.44321C28.4179 7.4611 26.1369 6.74828 23.7608 6.33643C23.719 6.33702 23.6792 6.3541 23.6499 6.38395C23.3648 6.90668 23.0322 7.58783 22.8104 8.11056C20.2901 7.73063 17.7272 7.73063 15.2069 8.11056C14.9852 7.57199 14.6525 6.90668 14.3516 6.38395C14.3357 6.35227 14.2882 6.33643 14.2407 6.33643C11.8646 6.74828 9.5994 7.4611 7.47677 8.44321C7.46093 8.44321 7.44509 8.45905 7.42925 8.4749C3.12062 14.922 1.93259 21.1948 2.51868 27.4043C2.51868 27.436 2.53453 27.4677 2.56621 27.4835C5.4175 29.5745 8.15791 30.8417 10.8666 31.6813C10.9142 31.6971 10.9617 31.6813 10.9775 31.6496C11.6111 30.7783 12.1814 29.8596 12.6725 28.8933C12.7041 28.83 12.6725 28.7666 12.6091 28.7508C11.7062 28.4023 10.8508 27.9904 10.0113 27.5152C9.94789 27.4835 9.94789 27.3885 9.99541 27.341C10.1697 27.2142 10.3439 27.0717 10.5181 26.9449C10.5498 26.9133 10.5973 26.9133 10.629 26.9291C16.0782 29.4161 21.955 29.4161 27.3408 26.9291C27.3725 26.9133 27.42 26.9133 27.4517 26.9449C27.6259 27.0875 27.8001 27.2142 27.9744 27.3568C28.0378 27.4043 28.0378 27.4994 27.9586 27.531C27.1348 28.0221 26.2636 28.4181 25.3607 28.7666C25.2973 28.7824 25.2815 28.8616 25.2974 28.9092C25.8042 29.8754 26.3745 30.7942 26.9923 31.6654C27.0398 31.6813 27.0873 31.6971 27.1348 31.6813C29.8594 30.8417 32.5998 29.5745 35.4511 27.4835C35.4828 27.4677 35.4986 27.436 35.4986 27.4043C36.1956 20.2286 34.3423 14.0032 30.5881 8.4749C30.5722 8.45905 30.5564 8.44321 30.5247 8.44321ZM13.4962 23.6184C11.8646 23.6184 10.5023 22.1136 10.5023 20.2602C10.5023 18.4069 11.8329 16.9021 13.4962 16.9021C15.1753 16.9021 16.5059 18.4227 16.49 20.2602C16.49 22.1136 15.1594 23.6184 13.4962 23.6184ZM24.537 23.6184C22.9054 23.6184 21.5431 22.1136 21.5431 20.2602C21.5431 18.4069 22.8738 16.9021 24.537 16.9021C26.2161 16.9021 27.5467 18.4227 27.5309 20.2602C27.5309 22.1136 26.2161 23.6184 24.537 23.6184Z" fill="#9C3FFF"/>
</svg>
