<svg width="16" height="16" viewBox="0 0 16 16" fill="none" xmlns="http://www.w3.org/2000/svg">
<path d="M12.8458 2.91417C11.9591 2.48803 10.9991 2.17873 9.99902 2.00003C9.99025 1.99974 9.98153 2.00144 9.97347 2.005C9.96541 2.00856 9.9582 2.01391 9.95235 2.02065C9.83235 2.24747 9.69235 2.54301 9.59901 2.76983C8.53832 2.60487 7.45962 2.60487 6.39892 2.76983C6.30559 2.53614 6.16558 2.24747 6.03891 2.02065C6.03225 2.0069 6.01225 2.00003 5.99225 2.00003C4.99222 2.17873 4.03886 2.48803 3.1455 2.91417C3.13883 2.91417 3.13217 2.92104 3.1255 2.92791C1.31212 5.72531 0.812104 8.44709 1.05878 11.1414C1.05878 11.1551 1.06544 11.1689 1.07878 11.1758C2.27881 12.083 3.43218 12.6329 4.57221 12.9972C4.59221 13.004 4.61221 12.9972 4.61888 12.9834C4.88555 12.6054 5.12556 12.2067 5.33223 11.7875C5.34556 11.76 5.33223 11.7325 5.30556 11.7256C4.92555 11.5744 4.56554 11.3957 4.2122 11.1895C4.18553 11.1758 4.18553 11.1345 4.20553 11.1139C4.27887 11.0589 4.3522 10.9971 4.42554 10.9421C4.43887 10.9283 4.45887 10.9283 4.4722 10.9352C6.7656 12.0143 9.239 12.0143 11.5057 10.9352C11.5191 10.9283 11.5391 10.9283 11.5524 10.9421C11.6257 11.0039 11.6991 11.0589 11.7724 11.1208C11.7991 11.1414 11.7991 11.1826 11.7657 11.1964C11.4191 11.4094 11.0524 11.5813 10.6724 11.7325C10.6457 11.7394 10.639 11.7737 10.6457 11.7943C10.859 12.2136 11.0991 12.6123 11.3591 12.9903C11.3791 12.9972 11.3991 13.004 11.4191 12.9972C12.5658 12.6329 13.7191 12.083 14.9192 11.1758C14.9325 11.1689 14.9392 11.1551 14.9392 11.1414C15.2325 8.02783 14.4525 5.32666 12.8724 2.92791C12.8658 2.92104 12.8591 2.91417 12.8458 2.91417ZM5.6789 9.49869C4.99222 9.49869 4.41887 8.84574 4.41887 8.04157C4.41887 7.23741 4.97889 6.58446 5.6789 6.58446C6.38559 6.58446 6.94561 7.24428 6.93894 8.04157C6.93894 8.84574 6.37892 9.49869 5.6789 9.49869ZM10.3257 9.49869C9.63901 9.49869 9.06566 8.84574 9.06566 8.04157C9.06566 7.23741 9.62568 6.58446 10.3257 6.58446C11.0324 6.58446 11.5924 7.24428 11.5857 8.04157C11.5857 8.84574 11.0324 9.49869 10.3257 9.49869Z" fill="white"/>
</svg>
