<svg
    width="28"
    height="28"
    viewBox="0 0 28 28"
    fill="none"
    xmlns="http://www.w3.org/2000/svg"
>
    <g clip-path="url(#clip0_302_1802)">
        <path
            d="M26.79 8.15804C25.1769 6.54498 22.5615 6.54498 20.9485 8.15804L15.1069 13.9996L20.9485 19.8411C22.5632 21.4317 25.1619 21.4244 26.7676 19.819C28.3733 18.2133 28.3803 15.615 26.7897 13.9999C28.4027 12.3865 28.4027 9.77111 26.7897 8.15804H26.79Z"
            fill="#F0131D"
        />
        <path
            d="M13.9999 12.8928L19.8414 7.05126C21.4324 5.43618 21.425 2.83752 19.8193 1.23216C18.2136 -0.373534 15.6153 -0.38057 14.0006 1.21005C12.3875 -0.40335 9.77208 -0.40335 8.15902 1.21005C6.54595 2.82312 6.54595 5.43853 8.15902 7.05159L14.0006 12.8931L13.9999 12.8928Z"
            fill="#F0131D"
        />
        <path
            d="M12.893 13.9997L7.05149 8.15817C5.43675 6.56755 2.83809 6.57492 1.2324 8.18028C-0.373297 9.78597 -0.380332 12.3843 1.21029 13.9994C-0.402778 15.6128 -0.402778 18.2282 1.21029 19.8412C2.82335 21.4543 5.43876 21.4543 7.05183 19.8412L12.8934 13.9997H12.893Z"
            fill="#F0131D"
        />
        <path
            d="M14 15.1068L8.15842 20.9483C6.56746 22.5634 6.57483 25.1621 8.18053 26.7674C9.78622 28.3731 12.3845 28.3801 13.9996 26.7895C15.6127 28.4029 18.2281 28.4029 19.8412 26.7895C21.4542 25.1765 21.4542 22.5611 19.8412 20.948L13.9996 15.1064L14 15.1068Z"
            fill="#F0131D"
        />
    </g>
    <defs>
        <clipPath id="clip0_302_1802">
            <rect width="28" height="28" fill="white" />
        </clipPath>
    </defs>
</svg>
