<svg width="20" height="20" viewBox="0 0 20 20" fill="none" xmlns="http://www.w3.org/2000/svg">
<path fill-rule="evenodd" clip-rule="evenodd" d="M16.6667 10.8334V15.0001C16.6667 15.6631 16.4033 16.299 15.9344 16.7678C15.4656 17.2367 14.8297 17.5001 14.1667 17.5001H10.8333V10.8334H16.6667ZM9.16667 10.8334V17.5001H5.83333C5.17029 17.5001 4.53441 17.2367 4.06557 16.7678C3.59673 16.299 3.33333 15.6631 3.33333 15.0001V10.8334H9.16667ZM7.5 1.66675C7.9729 1.66672 8.4404 1.76732 8.87143 1.96186C9.30247 2.1564 9.68717 2.44043 10 2.79508C10.3128 2.44043 10.6975 2.1564 11.1286 1.96186C11.5596 1.76732 12.0271 1.66672 12.5 1.66675H12.9167C13.2482 1.66675 13.5661 1.79844 13.8005 2.03286C14.035 2.26729 14.1667 2.58523 14.1667 2.91675V3.33341C14.1667 3.94091 14.0042 4.51008 13.7208 5.00008H15.8333C16.2754 5.00008 16.6993 5.17568 17.0118 5.48824C17.3244 5.8008 17.5 6.22472 17.5 6.66675V8.33341C17.5 8.63675 17.4192 8.92175 17.2767 9.16675H10.8333V6.66675C10.8333 6.44573 10.7455 6.23377 10.5893 6.07749C10.433 5.92121 10.221 5.83341 10 5.83341C9.77899 5.83341 9.56702 5.92121 9.41074 6.07749C9.25446 6.23377 9.16667 6.44573 9.16667 6.66675V9.16675H2.72333C2.57704 8.91339 2.50001 8.62598 2.5 8.33341V6.66675C2.5 6.22472 2.67559 5.8008 2.98816 5.48824C3.30072 5.17568 3.72464 5.00008 4.16667 5.00008H6.27917C5.98687 4.49328 5.83311 3.91847 5.83333 3.33341V2.91675C5.83333 2.58523 5.96503 2.26729 6.19945 2.03286C6.43387 1.79844 6.75181 1.66675 7.08333 1.66675H7.5ZM7.5 3.33341C7.5 3.77544 7.67559 4.19937 7.98816 4.51193C8.30072 4.82449 8.72464 5.00008 9.16667 5.00008C9.16667 4.55805 8.99107 4.13413 8.67851 3.82157C8.36595 3.50901 7.94203 3.33341 7.5 3.33341ZM12.5 3.33341C12.058 3.33341 11.634 3.50901 11.3215 3.82157C11.0089 4.13413 10.8333 4.55805 10.8333 5.00008C11.2754 5.00008 11.6993 4.82449 12.0118 4.51193C12.3244 4.19937 12.5 3.77544 12.5 3.33341Z" fill="white"/>
</svg>
