<svg
    width="30"
    height="30"
    viewBox="0 0 30 30"
    fill="none"
    xmlns="http://www.w3.org/2000/svg"
>
    <path
        d="M25.3125 8.43738H21.2109C21.8014 7.69169 22.0865 6.74948 22.0084 5.80152C21.9303 4.85356 21.4949 3.97069 20.7904 3.33168C20.0858 2.69267 19.1648 2.34527 18.2137 2.35981C17.2626 2.37436 16.3526 2.74978 15.668 3.41004C15.3918 3.68962 15.1658 4.01468 15 4.37098C14.8342 4.01468 14.6082 3.68962 14.332 3.41004C13.6474 2.74978 12.7374 2.37436 11.7863 2.35981C10.8352 2.34527 9.91419 2.69267 9.20963 3.33168C8.50508 3.97069 8.06969 4.85356 7.9916 5.80152C7.91351 6.74948 8.19857 7.69169 8.78906 8.43738H4.6875C4.19022 8.43738 3.71331 8.63493 3.36167 8.98656C3.01004 9.33819 2.8125 9.8151 2.8125 10.3124V14.0624C2.8125 14.5597 3.01004 15.0366 3.36167 15.3882C3.71331 15.7398 4.19022 15.9374 4.6875 15.9374V23.4374C4.6875 23.9347 4.88504 24.4116 5.23667 24.7632C5.58831 25.1148 6.06522 25.3124 6.5625 25.3124H23.4375C23.9348 25.3124 24.4117 25.1148 24.7633 24.7632C25.115 24.4116 25.3125 23.9347 25.3125 23.4374V15.9374C25.8098 15.9374 26.2867 15.7398 26.6383 15.3882C26.99 15.0366 27.1875 14.5597 27.1875 14.0624V10.3124C27.1875 9.8151 26.99 9.33819 26.6383 8.98656C26.2867 8.63493 25.8098 8.43738 25.3125 8.43738ZM16.9922 4.73426C17.1627 4.54603 17.3697 4.39442 17.6007 4.28862C17.8316 4.18283 18.0816 4.12505 18.3355 4.1188C18.5894 4.11255 18.842 4.15795 19.0778 4.25225C19.3137 4.34656 19.5279 4.4878 19.7075 4.6674C19.8871 4.84701 20.0283 5.06123 20.1226 5.29707C20.2169 5.53291 20.2623 5.78546 20.2561 6.03938C20.2498 6.2933 20.1921 6.5433 20.0863 6.77422C19.9805 7.00514 19.8288 7.21215 19.6406 7.38269C19.0664 7.96863 17.3906 8.28504 15.9727 8.40223C16.0898 6.98426 16.4062 5.30848 16.9922 4.73426ZM10.3594 4.73426C10.7124 4.38644 11.188 4.19147 11.6836 4.19147C12.1792 4.19147 12.6548 4.38644 13.0078 4.73426C13.5938 5.30848 13.9102 6.98426 14.0273 8.40223C12.6094 8.28504 10.9336 7.96863 10.3594 7.38269C10.0116 7.0297 9.81659 6.55404 9.81659 6.05848C9.81659 5.56292 10.0116 5.08725 10.3594 4.73426ZM25.3125 14.0624H15.9375V22.4999C15.9375 22.7485 15.8387 22.987 15.6629 23.1628C15.4871 23.3386 15.2486 23.4374 15 23.4374C14.7514 23.4374 14.5129 23.3386 14.3371 23.1628C14.1613 22.987 14.0625 22.7485 14.0625 22.4999V14.0624H4.6875V10.3124H14.0625V14.0624H15.9375V10.3124H25.3125V14.0624Z"
        fill="#F0131D"
    />
</svg>
