<svg width="17" height="17" viewBox="0 0 17 17" fill="none" xmlns="http://www.w3.org/2000/svg">
<path fill-rule="evenodd" clip-rule="evenodd" d="M7.39867 1.5361C7.71547 1.2956 8.10228 1.16541 8.50003 1.16541C8.89778 1.16541 9.28459 1.2956 9.60139 1.5361L10.4028 2.14446C12.7571 3.93301 14.774 6.12669 16.3589 8.62268L16.6163 9.02703C16.7329 9.21062 16.798 9.42214 16.8049 9.6395C16.8117 9.85685 16.7601 10.0721 16.6554 10.2627C16.5507 10.4532 16.3967 10.6122 16.2095 10.7229C16.0224 10.8337 15.8089 10.8921 15.5915 10.8922H14.7524C14.801 12.0093 14.7402 13.1277 14.5702 14.2339C14.4884 14.7663 14.2185 15.2519 13.8095 15.6025C13.4006 15.9531 12.8795 16.1456 12.3408 16.1452H10.0179V12.1429C10.0179 11.7403 9.85797 11.3543 9.57332 11.0696C9.28866 10.7849 8.90259 10.625 8.50003 10.625C8.09747 10.625 7.7114 10.7849 7.42674 11.0696C7.14209 11.3543 6.98217 11.7403 6.98217 12.1429V16.1452H4.65924C4.12102 16.1443 3.60079 15.9513 3.19227 15.6009C2.78374 15.2505 2.51379 14.7657 2.43103 14.2339C2.26103 13.1277 2.20032 12.0081 2.24889 10.8922H1.4086C1.19114 10.8921 0.977676 10.8337 0.79052 10.7229C0.603363 10.6122 0.449379 10.4532 0.344655 10.2627C0.239932 10.0721 0.188311 9.85685 0.195187 9.6395C0.202063 9.42214 0.267183 9.21062 0.383744 9.02703L0.639958 8.62146C2.22531 6.12581 4.24259 3.93254 6.59724 2.14446L7.39867 1.5361Z" fill="#3FCE3C"/>
</svg>
