<svg width="16" height="16" viewBox="0 0 16 16" fill="none" xmlns="http://www.w3.org/2000/svg">
<path d="M8 9.92C9.06039 9.92 9.92 9.06039 9.92 8C9.92 6.93961 9.06039 6.08 8 6.08C6.93961 6.08 6.08 6.93961 6.08 8C6.08 9.06039 6.93961 9.92 8 9.92Z" fill="white"/>
<path d="M10.64 2H5.36C4.46887 2 3.61424 2.354 2.98412 2.98412C2.354 3.61424 2 4.46887 2 5.36V10.64C2 11.5311 2.354 12.3858 2.98412 13.0159C3.61424 13.646 4.46887 14 5.36 14H10.64C11.5311 14 12.3858 13.646 13.0159 13.0159C13.646 12.3858 14 11.5311 14 10.64V5.36C14 4.46887 13.646 3.61424 13.0159 2.98412C12.3858 2.354 11.5311 2 10.64 2ZM8 10.88C7.43039 10.88 6.87357 10.7111 6.39996 10.3946C5.92634 10.0782 5.55721 9.62838 5.33923 9.10213C5.12125 8.57588 5.06421 7.99681 5.17534 7.43814C5.28646 6.87947 5.56076 6.36631 5.96353 5.96353C6.36631 5.56076 6.87947 5.28646 7.43814 5.17534C7.99681 5.06421 8.57588 5.12125 9.10213 5.33923C9.62838 5.55721 10.0782 5.92634 10.3946 6.39996C10.7111 6.87357 10.88 7.43039 10.88 8C10.88 8.76382 10.5766 9.49636 10.0365 10.0365C9.49636 10.5766 8.76382 10.88 8 10.88ZM11.12 5.6C10.9776 5.6 10.8384 5.55777 10.72 5.47866C10.6016 5.39954 10.5093 5.28709 10.4548 5.15553C10.4003 5.02397 10.3861 4.8792 10.4138 4.73953C10.4416 4.59987 10.5102 4.47158 10.6109 4.37088C10.7116 4.27019 10.8399 4.20162 10.9795 4.17383C11.1192 4.14605 11.264 4.16031 11.3955 4.21481C11.5271 4.2693 11.6395 4.36159 11.7187 4.47999C11.7978 4.59839 11.84 4.7376 11.84 4.88C11.84 5.07096 11.7641 5.25409 11.6291 5.38912C11.4941 5.52414 11.311 5.6 11.12 5.6Z" fill="white"/>
</svg>
