<svg width="29" height="29" viewBox="0 0 29 29" fill="none" xmlns="http://www.w3.org/2000/svg">
<path d="M9.50431 0C9.92443 0 10.3273 0.166891 10.6244 0.463958C10.9215 0.761025 11.0884 1.16394 11.0884 1.58405V6.33621H12.6724V4.75216C12.6725 4.36417 12.8149 3.98969 13.0727 3.69976C13.3305 3.40982 13.6858 3.22459 14.0711 3.17919L14.2565 3.1681H15.8405V1.58405C15.8406 1.19606 15.983 0.821589 16.2408 0.531652C16.4986 0.241715 16.8539 0.0564828 17.2392 0.0110883L17.4246 0H26.9289C27.349 0 27.7519 0.166891 28.049 0.463958C28.346 0.761025 28.5129 1.16394 28.5129 1.58405V7.92026C28.5129 8.34037 28.346 8.74329 28.049 9.04035C27.7519 9.33742 27.349 9.50431 26.9289 9.50431H25.3448V11.0884C25.3448 11.4763 25.2023 11.8508 24.9445 12.1408C24.6867 12.4307 24.3314 12.6159 23.9461 12.6613L23.7608 12.6724H22.1767V15.8405H23.7608C24.1488 15.8406 24.5232 15.983 24.8132 16.2408C25.1031 16.4986 25.2883 16.8539 25.3337 17.2392L25.3448 17.4246V19.0086H26.9289C27.3169 19.0087 27.6913 19.1511 27.9813 19.4089C28.2712 19.6668 28.4564 20.022 28.5018 20.4073L28.5129 20.5927V26.9289C28.5129 27.349 28.346 27.7519 28.049 28.049C27.7519 28.346 27.349 28.5129 26.9289 28.5129H17.4246C17.0045 28.5129 16.6015 28.346 16.3045 28.049C16.0074 27.7519 15.8405 27.349 15.8405 26.9289V25.3448H14.2565C13.8685 25.3448 13.494 25.2023 13.2041 24.9445C12.9141 24.6867 12.7289 24.3314 12.6835 23.9461L12.6724 23.7608V22.1767H11.0884V26.9289C11.0883 27.3169 10.9459 27.6913 10.688 27.9813C10.4302 28.2712 10.075 28.4564 9.68964 28.5018L9.50431 28.5129H1.58405C1.16394 28.5129 0.761025 28.346 0.463958 28.049C0.166891 27.7519 0 27.349 0 26.9289V1.58405C0 1.16394 0.166891 0.761025 0.463958 0.463958C0.761025 0.166891 1.16394 0 1.58405 0H9.50431Z" fill="#3FCE3C"/>
</svg>
