<svg width="17" height="17" viewBox="0 0 17 17" fill="none" xmlns="http://www.w3.org/2000/svg">
<g clip-path="url(#clip0_1_187)">
<path fill-rule="evenodd" clip-rule="evenodd" d="M1.01881 1.09396C5.9005 -0.358795 11.0996 -0.358795 15.9812 1.09396C16.5823 1.27246 16.994 1.82496 16.994 2.45154V4.26932C16.994 5.59532 16.5653 6.89461 15.7627 7.87575C15.1264 8.65532 14.2849 9.19446 13.345 9.38875C13.2841 9.39952 13.2224 9.40561 13.1605 9.40697H13.1022C12.6092 11.0463 11.3657 12.399 9.70824 12.8483V15.1748H11.4131C11.6546 15.1748 11.8863 15.2708 12.0571 15.4416C12.2279 15.6124 12.3238 15.844 12.3238 16.0855C12.3238 16.3271 12.2279 16.5587 12.0571 16.7295C11.8863 16.9003 11.6546 16.9963 11.4131 16.9963H5.5736C5.33206 16.9963 5.10042 16.9003 4.92963 16.7295C4.75883 16.5587 4.66288 16.3271 4.66288 16.0855C4.66288 15.844 4.75883 15.6124 4.92963 15.4416C5.10042 15.2708 5.33206 15.1748 5.5736 15.1748H7.27845V12.8385C5.64888 12.3771 4.39574 11.022 3.89788 9.40454H3.82503C3.76269 9.40284 3.70058 9.39635 3.63924 9.38511C2.70424 9.18839 1.87003 8.65047 1.23738 7.87696C0.433526 6.89339 0.00488281 5.59411 0.00488281 4.27054V2.45032C0.00488281 1.82375 0.41774 1.27246 1.0176 1.09275M3.85295 2.27061C3.68769 4.0051 3.6208 5.74755 3.6526 7.48961C3.25832 7.3223 2.91254 7.05837 2.64717 6.72218C2.13717 6.09682 1.82631 5.21646 1.82631 4.26932V2.75389C2.49741 2.56285 3.17295 2.40175 3.85295 2.27061ZM13.345 7.49204C13.3515 7.21356 13.3547 6.93427 13.3547 6.65418C13.3547 5.17275 13.2758 3.67068 13.1422 2.27061C13.8239 2.40256 14.5006 2.56446 15.1725 2.75632V4.26932C15.1725 5.21646 14.8629 6.09804 14.3517 6.72339C14.0861 7.06019 13.7399 7.32456 13.345 7.49204Z" fill="#080A08"/>
</g>
<defs>
<clipPath id="clip0_1_187">
<rect width="17" height="17" fill="white"/>
</clipPath>
</defs>
</svg>
