<svg width="17" height="17" viewBox="0 0 17 17" fill="none" xmlns="http://www.w3.org/2000/svg">
<g clip-path="url(#clip0_15_4721)">
<path fill-rule="evenodd" clip-rule="evenodd" d="M1.01881 1.09409C5.9005 -0.358673 11.0996 -0.358673 15.9812 1.09409C16.5823 1.27259 16.994 1.82509 16.994 2.45166V4.26944C16.994 5.59544 16.5653 6.89473 15.7627 7.87587C15.1264 8.65544 14.2849 9.19459 13.345 9.38887C13.2841 9.39964 13.2224 9.40573 13.1605 9.40709H13.1022C12.6092 11.0464 11.3657 12.3991 9.70824 12.8484V15.1749H11.4131C11.6546 15.1749 11.8863 15.2709 12.0571 15.4417C12.2279 15.6125 12.3238 15.8441 12.3238 16.0857C12.3238 16.3272 12.2279 16.5588 12.0571 16.7296C11.8863 16.9004 11.6546 16.9964 11.4131 16.9964H5.5736C5.33206 16.9964 5.10042 16.9004 4.92963 16.7296C4.75883 16.5588 4.66288 16.3272 4.66288 16.0857C4.66288 15.8441 4.75883 15.6125 4.92963 15.4417C5.10042 15.2709 5.33206 15.1749 5.5736 15.1749H7.27845V12.8387C5.64888 12.3772 4.39574 11.0221 3.89788 9.40466H3.82503C3.76269 9.40296 3.70058 9.39647 3.63924 9.38523C2.70424 9.18852 1.87003 8.65059 1.23738 7.87709C0.433526 6.89352 0.00488281 5.59423 0.00488281 4.27066V2.45044C0.00488281 1.82387 0.41774 1.27259 1.0176 1.09287M3.85295 2.27073C3.68769 4.00522 3.6208 5.74768 3.6526 7.48973C3.25832 7.32242 2.91254 7.05849 2.64717 6.7223C2.13717 6.09694 1.82631 5.21659 1.82631 4.26944V2.75401C2.49741 2.56297 3.17295 2.40187 3.85295 2.27073ZM13.345 7.49216C13.3515 7.21368 13.3547 6.9344 13.3547 6.6543C13.3547 5.17287 13.2758 3.6708 13.1422 2.27073C13.8239 2.40268 14.5006 2.56459 15.1725 2.75644V4.26944C15.1725 5.21659 14.8629 6.09816 14.3517 6.72352C14.0861 7.06031 13.7399 7.32468 13.345 7.49216Z" fill="#3FCE3C"/>
</g>
<defs>
<clipPath id="clip0_15_4721">
<rect width="17" height="17" fill="white"/>
</clipPath>
</defs>
</svg>
