<svg
    width="26"
    height="31"
    viewBox="0 0 26 31"
    fill="none"
    xmlns="http://www.w3.org/2000/svg"
>
    <path
        d="M25.6205 0C25.5588 3.11605 24.2803 5.18219 22.9118 6.5077C22.9118 6.5077 22.8974 6.52215 22.8691 6.5489C21.8662 7.50732 20.8211 8.07134 20.1754 8.36031C18.681 9.08702 16.671 9.66121 14.3931 9.25719C14.3931 9.25719 17.074 9.31926 19.0234 8.06867C18.2307 7.29755 17.2128 6.56175 15.9086 5.97578C15.9621 7.17286 15.2912 7.87816 15.2912 7.87816C15.8084 6.50288 15.4902 5.59209 15.1118 5.05804C14.6512 4.42498 13.8791 4.0049 13.001 3.99099C12.1225 4.0049 11.3509 4.42444 10.8903 5.05804C10.5119 5.59209 10.1937 6.50288 10.7108 7.87816C10.7108 7.87816 10.04 7.17286 10.0934 5.97578C8.78975 6.56175 7.77189 7.29755 6.97868 8.06867C8.92804 9.31926 11.6089 9.25719 11.6089 9.25719C9.33107 9.66175 7.32105 9.08702 5.82664 8.36031C5.18097 8.07134 4.13586 7.50785 3.13291 6.5489C3.10463 6.52215 3.09024 6.5077 3.09024 6.5077C1.72024 5.18219 0.441743 3.11605 0.380055 0C0.380055 0 -0.41727 3.1792 0.297803 6.39265C0.778974 8.55564 1.85081 10.5945 3.4614 12.0666C4.08703 12.6381 4.69569 13.2455 5.18251 13.9519C5.44777 14.3366 6.17313 15.5 5.39482 16.4092C5.39482 16.4086 6.08368 15.1586 4.26746 13.7945V22.7499C4.26746 22.7499 9.27195 24.6839 11.9667 30.9968C11.9667 30.9979 11.9677 30.9989 11.9683 31V30.9984L11.3267 22.6563C10.3649 17.8428 6.35305 13.23 6.35305 13.23L12.012 14.3752L11.5853 17.671L13 20.8968L14.4147 17.671L13.988 14.3752L19.6469 13.23C19.6469 13.23 15.6346 17.8428 14.6733 22.6563L14.0317 30.9984V31C14.0317 31 14.0328 30.9979 14.0333 30.9968C16.728 24.6839 21.7325 22.7499 21.7325 22.7499V13.7945C19.9168 15.1586 20.6052 16.4081 20.6052 16.4092C19.8269 15.5 20.5522 14.3366 20.8175 13.9519C21.3043 13.2455 21.913 12.6381 22.5386 12.0666C24.1497 10.5939 25.221 8.5551 25.7022 6.39265C26.4173 3.1792 25.6199 0 25.6199 0L25.6205 0Z"
        fill="#F0131D"
    />
</svg>
