<svg width="13" height="16" viewBox="0 0 13 16" fill="none" xmlns="http://www.w3.org/2000/svg">
<path d="M6.49996 4.55071L3.95204 0.349656C3.75627 0.0276446 3.34668 -0.0886373 3.00936 0.0783315L0.401199 1.36936C0.0428025 1.54527 -0.101761 1.97462 0.0759316 2.32943L2.1721 6.47682C1.26557 7.48757 0.717431 8.81736 0.717431 10.2754C0.717431 13.4358 3.30752 16 6.49996 16C9.6924 16 12.2825 13.4358 12.2825 10.2754C12.2825 8.81736 11.7313 7.48757 10.8278 6.47682L12.924 2.32943C13.1017 1.97462 12.9571 1.54527 12.6017 1.36936L9.99057 0.0753499C9.65325 -0.0916189 9.24064 0.0276446 9.04789 0.346674L6.49996 4.55071ZM7.42758 8.79947C7.46974 8.88295 7.54805 8.9396 7.6384 8.95153L9.14728 9.16919C9.37918 9.20198 9.46953 9.48225 9.30389 9.64624L8.21063 10.7017C8.14437 10.7673 8.11425 10.8568 8.12931 10.9492L8.38832 12.437C8.42747 12.6636 8.18654 12.8395 7.97873 12.7322L6.62947 12.0285C6.54815 11.9868 6.44876 11.9868 6.36745 12.0285L5.01819 12.7322C4.81038 12.8395 4.56944 12.6666 4.60859 12.437L4.8676 10.9492C4.88266 10.8597 4.85254 10.7673 4.78629 10.7017L3.69303 9.64624C3.52437 9.48523 3.61773 9.20497 3.84964 9.16919L5.35852 8.95153C5.44887 8.9396 5.53018 8.87997 5.56934 8.79947L6.24397 7.44583C6.34637 7.23712 6.64453 7.23712 6.74994 7.44583L7.42457 8.79947H7.42758Z" fill="#3FCE3C"/>
</svg>
