<svg width="15" height="15" viewBox="0 0 15 15" fill="none" xmlns="http://www.w3.org/2000/svg">
<path d="M5.06688 2.414C5.96433 0.804667 6.41271 0 7.0835 0C7.75429 0 8.20267 0.804667 9.10013 2.414L9.33246 2.8305C9.58746 3.28808 9.71496 3.51687 9.91329 3.66775C10.1116 3.81862 10.3595 3.87458 10.8554 3.9865L11.3059 4.0885C13.0484 4.48304 13.9189 4.67996 14.1265 5.3465C14.3333 6.01233 13.7397 6.70721 12.5518 8.09625L12.2444 8.45537C11.9072 8.84992 11.738 9.04754 11.6622 9.29121C11.5864 9.53558 11.6119 9.79908 11.6629 10.3254L11.7096 10.8049C11.8888 12.6586 11.9788 13.5851 11.4362 13.9967C10.8936 14.4082 10.0776 14.0328 8.44704 13.282L8.02417 13.0879C7.56092 12.874 7.32929 12.7677 7.0835 12.7677C6.83771 12.7677 6.60608 12.874 6.14283 13.0879L5.72067 13.282C4.08937 14.0328 3.27337 14.4082 2.7315 13.9974C2.18821 13.5851 2.27817 12.6586 2.45737 10.8049L2.50412 10.3261C2.55512 9.79908 2.58062 9.53558 2.50412 9.29192C2.42904 9.04754 2.25975 8.84992 1.92258 8.45608L1.61517 8.09625C0.427292 6.70792 -0.166292 6.01304 0.0405415 5.3465C0.247375 4.67996 1.11933 4.48233 2.86183 4.0885L3.31233 3.9865C3.80746 3.87458 4.05467 3.81862 4.25371 3.66775C4.45275 3.51687 4.57954 3.28808 4.83454 2.8305L5.06688 2.414Z" fill="#3FCE3C"/>
</svg>
