<svg width="39" height="39" viewBox="0 0 39 39" fill="none" xmlns="http://www.w3.org/2000/svg">
<path d="M35.5778 9.50453C34.3581 10.0589 33.0433 10.4233 31.681 10.5975C33.075 9.75798 34.1522 8.42737 34.6591 6.82748C33.3443 7.61951 31.887 8.17393 30.3504 8.49074C29.099 7.12845 27.3407 6.33643 25.3448 6.33643C21.6223 6.33643 18.5809 9.37781 18.5809 13.132C18.5809 13.6706 18.6443 14.1933 18.7552 14.6844C13.116 14.3993 8.09452 11.6905 4.75217 7.58783C4.16607 8.58578 3.83342 9.75798 3.83342 10.9935C3.83342 13.3538 5.02146 15.4447 6.85896 16.6328C5.73428 16.6328 4.68881 16.316 3.77006 15.8407V15.8883C3.77006 19.1831 6.11445 21.9393 9.21919 22.5571C8.22257 22.8311 7.17583 22.869 6.16197 22.668C6.59221 24.0184 7.43482 25.2 8.57134 26.0467C9.70787 26.8934 11.0812 27.3626 12.4982 27.3885C10.0962 29.2901 7.11876 30.318 4.05519 30.3031C3.51661 30.3031 2.97803 30.2715 2.43945 30.2081C5.44915 32.1406 9.02911 33.2653 12.8625 33.2653C25.3448 33.2653 32.2038 22.9056 32.2038 13.924C32.2038 13.6231 32.2038 13.3379 32.1879 13.037C33.5185 12.0865 34.6591 10.8827 35.5778 9.50453Z" fill="#3FBFFF"/>
</svg>
